<svg width="35" height="34" viewBox="0 0 35 34" fill="none" xmlns="http://www.w3.org/2000/svg">
<path d="M34.8333 16.625L30.97 12.2075L31.5083 6.365L25.7925 5.06667L22.8 0L17.4167 2.31167L12.0333 0L9.04083 5.05083L3.325 6.33333L3.86333 12.1917L0 16.625L3.86333 21.0425L3.325 26.9008L9.04083 28.1992L12.0333 33.25L17.4167 30.9225L22.8 33.2342L25.7925 28.1833L31.5083 26.885L30.97 21.0425L34.8333 16.625ZM13.2683 22.9742L9.5 19.1742C8.8825 18.5567 8.8825 17.5592 9.5 16.9417L9.61083 16.8308C10.2283 16.2133 11.2417 16.2133 11.8592 16.8308L14.4083 19.3958L22.5625 11.2258C23.18 10.6083 24.1933 10.6083 24.8108 11.2258L24.9217 11.3367C25.5392 11.9542 25.5392 12.9517 24.9217 13.5692L15.5483 22.9742C14.8992 23.5917 13.9017 23.5917 13.2683 22.9742Z" fill="#6EDF79"/>
</svg>
