<svg width="17" height="15" viewBox="0 0 17 15" fill="none" xmlns="http://www.w3.org/2000/svg">
<path d="M1.22814 2.70692L4.54788 4.88544L7.85655 0.326105C7.92967 0.225247 8.0262 0.143036 8.13811 0.0863141C8.25002 0.0295923 8.37407 0 8.49995 0C8.62582 0 8.74988 0.0295923 8.86179 0.0863141C8.9737 0.143036 9.07023 0.225247 9.14335 0.326105L12.452 4.88544L15.7718 2.70692C15.8974 2.62464 16.0443 2.57948 16.1952 2.57678C16.3461 2.57408 16.4946 2.61395 16.6232 2.69168C16.7518 2.76942 16.8551 2.88176 16.9209 3.01544C16.9867 3.14912 17.0123 3.29854 16.9945 3.44606L15.6959 14.313C15.6732 14.5022 15.5808 14.6767 15.4361 14.8034C15.2915 14.93 15.1046 15 14.911 15H2.0889C1.8953 15 1.70844 14.93 1.56377 14.8034C1.4191 14.6767 1.32667 14.5022 1.30402 14.313L0.00536823 3.44528C-0.012179 3.29783 0.0134978 3.14851 0.0793673 3.01496C0.145237 2.8814 0.248549 2.76919 0.377109 2.69156C0.505668 2.61393 0.654107 2.57413 0.804903 2.57685C0.955699 2.57957 1.10256 2.6247 1.22814 2.70692ZM8.49995 10.3317C8.91921 10.3317 9.3213 10.1678 9.61776 9.87597C9.91423 9.58415 10.0808 9.18835 10.0808 8.77565C10.0808 8.36295 9.91423 7.96716 9.61776 7.67534C9.3213 7.38351 8.91921 7.21957 8.49995 7.21957C8.08069 7.21957 7.6786 7.38351 7.38213 7.67534C7.08567 7.96716 6.91912 8.36295 6.91912 8.77565C6.91912 9.18835 7.08567 9.58415 7.38213 9.87597C7.6786 10.1678 8.08069 10.3317 8.49995 10.3317Z" fill="#1E2A0F"/>
</svg>
