<svg width="15" height="13" viewBox="0 0 15 13" fill="none" xmlns="http://www.w3.org/2000/svg">
<path d="M7.79485 0.00502421C7.85008 0.024338 7.88181 0.0937226 7.86572 0.160004L7.8652 0.162163L7.86358 0.16888L7.85743 0.194827C7.85214 0.217304 7.84463 0.249588 7.83583 0.288608C7.81819 0.366775 7.79546 0.471386 7.77489 0.578055C7.75417 0.685493 7.73627 0.791774 7.72756 0.874366C7.7233 0.914706 7.72172 0.945109 7.7222 0.965409C7.75837 1.00809 7.79634 1.05468 7.82375 1.10281C7.85752 1.16212 7.88506 1.24067 7.86722 1.33362C7.86006 1.37095 7.83871 1.42711 7.81867 1.47135C7.80774 1.49549 7.79492 1.52117 7.78116 1.54411C7.76927 1.56393 7.7497 1.59376 7.72355 1.6142C7.71682 1.61946 7.70248 1.63707 7.71037 1.704C7.71776 1.76669 7.74144 1.82988 7.75447 1.85434L7.81058 1.95966L7.63504 2.09431L7.57894 1.98899C7.55131 1.93711 7.51602 1.84028 7.50409 1.739C7.4928 1.64324 7.49849 1.49562 7.60546 1.40822C7.60656 1.40671 7.60879 1.40353 7.6121 1.39801C7.61916 1.38626 7.62735 1.37024 7.63562 1.35199C7.64377 1.334 7.65109 1.31579 7.65661 1.30051C7.66125 1.28764 7.66336 1.28031 7.66401 1.27804C7.66401 1.27804 7.66464 1.27487 7.6639 1.2716C7.66287 1.2671 7.65992 1.25822 7.65174 1.24385C7.63385 1.21244 7.60428 1.17663 7.55904 1.1236C7.53519 1.09564 7.52565 1.06228 7.52132 1.04209C7.51654 1.01985 7.51471 0.997175 7.51407 0.97712C7.51279 0.936835 7.5159 0.890126 7.52087 0.842981C7.53092 0.747672 7.55072 0.631621 7.57192 0.521684C7.59327 0.410978 7.6167 0.303171 7.63474 0.223263C7.64377 0.183245 7.65147 0.150078 7.65694 0.126863L7.66335 0.0998626L7.66507 0.0926678L7.66553 0.0907729C7.68163 0.0244942 7.73962 -0.0142901 7.79485 0.00502421Z" fill="#34ADE7"/>
<path d="M15 3C15 3.99301 14.8568 4.38698 14.5773 5.15559C14.5316 5.28146 14.4821 5.41737 14.4291 5.56761C14.0522 6.63528 13.4997 7.60539 12.8033 8.42254C12.1069 9.2397 11.2801 9.8879 10.3701 10.3301C9.46018 10.7724 8.48491 11 7.5 11C6.51509 11 5.53982 10.7724 4.62987 10.3301C3.71993 9.8879 2.89314 9.23969 2.1967 8.42254C1.50026 7.60538 0.947813 6.63528 0.570903 5.56761C0.517865 5.41737 0.468448 5.28145 0.422684 5.15558C0.143237 4.38698 0 3.99301 0 3H15Z" fill="#34ADE7"/>
<path d="M7.5 11H9.16667V12H10V13H5V12H5.83333V11H7.5Z" fill="#34ADE7"/>
<path d="M7.03238 0.160004C7.04848 0.0937226 7.01675 0.024338 6.96152 0.00502421C6.90629 -0.0142901 6.84847 0.0237823 6.83237 0.090061L6.83174 0.0926678L6.83001 0.0998626L6.82361 0.126863C6.81814 0.150078 6.81043 0.183245 6.8014 0.223263C6.78337 0.303171 6.75994 0.410978 6.73859 0.521684C6.71739 0.631621 6.69759 0.747672 6.68754 0.842981C6.68257 0.890126 6.67946 0.936835 6.68074 0.97712C6.68138 0.997175 6.68321 1.01985 6.68798 1.04209C6.69232 1.06228 6.70186 1.09564 6.72571 1.1236C6.77095 1.17663 6.80052 1.21244 6.8184 1.24385C6.82658 1.25822 6.82954 1.2671 6.83056 1.2716C6.83131 1.27487 6.83087 1.27751 6.83087 1.27751C6.83022 1.27978 6.82792 1.28764 6.82327 1.30051C6.81776 1.31579 6.81043 1.334 6.80228 1.35199C6.79402 1.37024 6.78582 1.38626 6.77877 1.39801C6.77545 1.40353 6.77322 1.40671 6.77212 1.40822C6.66515 1.49562 6.65947 1.64324 6.67075 1.739C6.68269 1.84028 6.71797 1.93711 6.74561 1.98899L6.80171 2.09431L6.97724 1.95966L6.92114 1.85434C6.90811 1.82988 6.88442 1.76669 6.87704 1.704C6.86915 1.63707 6.88348 1.61946 6.89021 1.6142C6.91637 1.59376 6.93593 1.56393 6.94782 1.54411C6.96159 1.52117 6.97441 1.49549 6.98534 1.47135C7.00537 1.42711 7.02672 1.37095 7.03389 1.33362C7.05173 1.24067 7.02419 1.16212 6.99041 1.10281C6.96301 1.05468 6.92504 1.00809 6.88886 0.965409C6.88839 0.945109 6.88997 0.914706 6.89422 0.874366C6.90293 0.791774 6.92084 0.685493 6.94156 0.578055C6.96213 0.471386 6.98485 0.366775 7.00249 0.288608C7.0113 0.249588 7.0188 0.217304 7.02409 0.194827L7.03025 0.16888L7.03186 0.162163L7.03238 0.160004Z" fill="#34ADE7"/>
<path d="M6.19905 0.160004L6.19853 0.162163L6.19692 0.16888L6.19076 0.194827C6.18547 0.217304 6.17796 0.249588 6.16916 0.288608C6.15152 0.366775 6.1288 0.471386 6.10822 0.578055C6.0875 0.685493 6.0696 0.791774 6.06089 0.874366C6.05664 0.914706 6.05506 0.945109 6.05553 0.965409C6.09171 1.00809 6.12967 1.05468 6.15708 1.10281C6.19086 1.16212 6.21839 1.24067 6.20055 1.33362C6.19339 1.37095 6.17204 1.42711 6.15201 1.47135C6.14108 1.49549 6.12826 1.52117 6.11449 1.54411C6.1026 1.56393 6.08303 1.59376 6.05688 1.6142C6.05015 1.61946 6.03581 1.63707 6.0437 1.704C6.05109 1.76669 6.07478 1.82988 6.08781 1.85434L6.14391 1.95966L5.96837 2.09431L5.91227 1.98899C5.88464 1.93711 5.84936 1.84028 5.83742 1.739C5.82614 1.64324 5.83182 1.49562 5.93879 1.40822C5.93989 1.40671 5.94212 1.40353 5.94544 1.39801C5.95249 1.38626 5.96069 1.37024 5.96895 1.35199C5.9771 1.334 5.98443 1.31579 5.98994 1.30051C5.99459 1.28764 5.99669 1.28031 5.99734 1.27804C5.99734 1.27804 5.99798 1.27487 5.99723 1.2716C5.9962 1.2671 5.99325 1.25822 5.98507 1.24385C5.96718 1.21244 5.93761 1.17663 5.89237 1.1236C5.86852 1.09564 5.85898 1.06228 5.85465 1.04209C5.84988 1.01985 5.84805 0.997175 5.84741 0.97712C5.84613 0.936835 5.84923 0.890126 5.85421 0.842981C5.86426 0.747672 5.88405 0.631621 5.90525 0.521684C5.92661 0.410978 5.95004 0.303171 5.96807 0.223263C5.9771 0.183245 5.98481 0.150078 5.99027 0.126863L5.99668 0.0998626L5.99841 0.0926678L5.99886 0.0907729C6.01496 0.0244942 6.07296 -0.0142901 6.12819 0.00502421C6.18342 0.024338 6.21514 0.0937266 6.19905 0.160004Z" fill="#34ADE7"/>
</svg>
