<svg width="14" height="21" viewBox="0 0 14 21" fill="none" xmlns="http://www.w3.org/2000/svg">
<mask id="path-1-inside-1_923_1209" fill="white">
<path d="M1 7H13L12.1724 21H2.24138L1 7Z"/>
<path d="M0 5H14V7H0V5Z"/>
<path d="M4 2H10L12 5H2L4 2Z"/>
<path d="M7 0H8V2H7V0Z"/>
</mask>
<path d="M1 7H13L12.1724 21H2.24138L1 7Z" fill="#34ADE7"/>
<path d="M0 5H14V7H0V5Z" fill="#34ADE7"/>
<path d="M4 2H10L12 5H2L4 2Z" fill="#34ADE7"/>
<path d="M7 0H8V2H7V0Z" fill="white"/>
<path d="M1 7V6.5C0.859713 6.5 0.725879 6.55894 0.631163 6.66242C0.536448 6.76591 0.489563 6.90442 0.501954 7.04416L1 7ZM13 7L13.4991 7.02951C13.5073 6.89201 13.4583 6.75726 13.3638 6.65704C13.2694 6.55681 13.1377 6.5 13 6.5V7ZM12.1724 21V21.5C12.4371 21.5 12.6559 21.2937 12.6715 21.0295L12.1724 21ZM2.24138 21L1.74333 21.0442C1.76621 21.3022 1.98235 21.5 2.24138 21.5V21ZM0 5V4.5C-0.276142 4.5 -0.5 4.72386 -0.5 5H0ZM14 5H14.5C14.5 4.72386 14.2761 4.5 14 4.5V5ZM14 7V7.5C14.2761 7.5 14.5 7.27614 14.5 7H14ZM0 7H-0.5C-0.5 7.27614 -0.276142 7.5 0 7.5L0 7ZM4 2V1.5C3.83282 1.5 3.67671 1.58355 3.58397 1.72265L4 2ZM10 2L10.416 1.72265C10.3233 1.58355 10.1672 1.5 10 1.5V2ZM12 5V5.5C12.1844 5.5 12.3538 5.39851 12.4408 5.23593C12.5278 5.07335 12.5183 4.87608 12.416 4.72265L12 5ZM2 5L1.58397 4.72265C1.48169 4.87608 1.47215 5.07335 1.55916 5.23593C1.64617 5.39851 1.8156 5.5 2 5.5V5ZM7 0V-0.5C6.72386 -0.5 6.5 -0.276142 6.5 0L7 0ZM8 0H8.5C8.5 -0.276142 8.27614 -0.5 8 -0.5V0ZM8 2V2.5C8.27614 2.5 8.5 2.27614 8.5 2H8ZM7 2H6.5C6.5 2.27614 6.72386 2.5 7 2.5V2ZM1 7.5H13V6.5H1V7.5ZM12.5009 6.97049L11.6733 20.9705L12.6715 21.0295L13.4991 7.02951L12.5009 6.97049ZM12.1724 20.5H2.24138V21.5H12.1724V20.5ZM2.73943 20.9558L1.49805 6.95584L0.501954 7.04416L1.74333 21.0442L2.73943 20.9558ZM0 5.5H14V4.5H0V5.5ZM13.5 5V7H14.5V5H13.5ZM14 6.5H0V7.5H14V6.5ZM0.5 7V5H-0.5V7H0.5ZM4 2.5H10V1.5H4V2.5ZM9.58397 2.27735L11.584 5.27735L12.416 4.72265L10.416 1.72265L9.58397 2.27735ZM12 4.5H2V5.5H12V4.5ZM2.41603 5.27735L4.41603 2.27735L3.58397 1.72265L1.58397 4.72265L2.41603 5.27735ZM7 0.5H8V-0.5H7V0.5ZM7.5 0V2H8.5V0H7.5ZM8 1.5H7V2.5H8V1.5ZM7.5 2V0H6.5V2H7.5Z" fill="#34ADE7" mask="url(#path-1-inside-1_923_1209)"/>
</svg>
