<svg width="17" height="21" viewBox="0 0 17 21" fill="none" xmlns="http://www.w3.org/2000/svg">
<path d="M7.32899 1.16989L0.616482 9.92629C0.364334 10.2552 0.598851 10.7305 1.0133 10.7305H3.33871C3.61485 10.7305 3.83871 10.9543 3.83871 11.2305V20.3387C3.83871 20.6149 4.06257 20.8387 4.33871 20.8387H7.72581C8.00195 20.8387 8.22581 20.6149 8.22581 20.3387V15.0211C8.22581 14.7449 8.44967 14.5211 8.72581 14.5211H12.1129C12.389 14.5211 12.6129 14.7449 12.6129 15.0211V20.3387C12.6129 20.6149 12.8368 20.8387 13.1129 20.8387H16.5C16.7761 20.8387 17 20.6149 17 20.3387V5.80107C17 5.52493 16.7761 5.30107 16.5 5.30107H13.1129C12.8368 5.30107 12.6129 5.52493 12.6129 5.80107V10.2305C12.6129 10.5066 12.389 10.7305 12.1129 10.7305H8.72581C8.44967 10.7305 8.22581 10.5066 8.22581 10.2305V1.47409C8.22581 0.996242 7.6197 0.790655 7.32899 1.16989Z" fill="black"/>
</svg>
