<svg width="15" height="15" viewBox="0 0 15 15" fill="none" xmlns="http://www.w3.org/2000/svg">
<path d="M11.5266 6.5635L12.5861 5.55648L14.1791 7.07059C15.0582 6.23497 15.0582 4.87799 14.1791 4.04238L11.5191 1.51411L10.4596 2.52113V0.507083L9.93363 0L7.27364 2.52827L7.80714 3.03535H9.93363L8.87414 4.04238L9.67063 4.79943L7.49906 6.86347L4.39574 3.91382V2.89965L2.12649 0.742769L0 2.76396L2.27677 4.92799H3.33626L6.43957 7.87763L5.80088 8.4847H4.20789L0.225423 12.27C-0.0676268 12.5485 -0.0676268 12.9985 0.225423 13.277L1.81841 14.7911C2.11146 15.0696 2.58485 15.0696 2.8779 14.7911L6.86036 11.0058V9.49173L10.7301 5.81359L11.5266 6.5635ZM5.53037 10.2416L2.3444 13.2698L1.8109 12.7628L4.99687 9.73456L5.53037 10.2416Z" fill="#34ADE7"/>
</svg>
